<?xml version="1.0" encoding="UTF-8"?>
<svg width="500" height="500" version="1.1" viewBox="0 0 132.29 132.29" xmlns="http://www.w3.org/2000/svg" xmlns:cc="http://creativecommons.org/ns#" xmlns:dc="http://purl.org/dc/elements/1.1/" xmlns:rdf="http://www.w3.org/1999/02/22-rdf-syntax-ns#" xmlns:xlink="http://www.w3.org/1999/xlink">
 <defs>
  <linearGradient id="linearGradient2906" x1="67.875" x2="67.898" y1="122.68" y2="9.0872" gradientUnits="userSpaceOnUse">
   <stop stop-color="#fff" offset="0"/>
   <stop stop-color="#b3baff" offset="1"/>
  </linearGradient>
 </defs>
 <metadata>
  <rdf:RDF>
   <cc:Work rdf:about="">
    <dc:format>image/svg+xml</dc:format>
    <dc:type rdf:resource="http://purl.org/dc/dcmitype/StillImage"/>
    <dc:title/>
   </cc:Work>
  </rdf:RDF>
 </metadata>
 <circle cx="65.748" cy="65.214" r="56.807" fill="url(#linearGradient2906)" stroke="#000" stroke-linejoin="round" stroke-width="2.8861" style="paint-order:markers fill stroke"/>
 <g>
  <g shape-rendering="auto">
   <path d="m60.433 29.175c-0.08589 2.2129-0.44924 4.4105-0.75727 6.6016-0.63249 6.2473 0.27527-2.634-0.47597 4.4041-0.09563 0.89594-0.16326 1.7949-0.27002 2.6896-0.33262 2.7875-0.82696 5.5533-1.2997 8.3192-0.81022 4.5788-1.8318 9.1246-3.1918 13.572-0.44148 1.6185-1.0722 3.1577-1.764 4.681l10.077-4.6496c0.55569-1.5189 1.0435-3.0595 1.3377-4.6538 0.34306-1.7739 0.63847-3.5559 0.97566-5.3309 0.50883-2.6785 1.0949-5.3418 1.5734-8.0262 0.28928-1.8429 0.58678-3.6846 0.87018-5.5285 0.52106-3.39 0.95971-6.7984 1.7213-10.146 0.4542-2.3222 0.86528-4.6523 1.3224-6.9739z" color="#000000" color-rendering="auto" dominant-baseline="auto" image-rendering="auto" solid-color="#000000" stop-color="#000000" style="font-feature-settings:normal;font-variant-alternates:normal;font-variant-caps:normal;font-variant-east-asian:normal;font-variant-ligatures:normal;font-variant-numeric:normal;font-variant-position:normal;font-variation-settings:normal;inline-size:0;isolation:auto;mix-blend-mode:normal;shape-margin:0;shape-padding:0;text-decoration-color:#000000;text-decoration-line:none;text-decoration-style:solid;text-indent:0;text-orientation:mixed;text-transform:none;white-space:normal"/>
   <path d="m72.57 21.486-13.572 6.7617-0.033203 0.87109c-0.081123 2.0901-0.43279 4.2384-0.74414 6.4531l-0.003906 0.029296-0.003906 0.027344c-0.095339 0.94169-0.10428 1.0473-0.14062 1.4082-0.023048 0.11676-0.022801 0.13701-0.029297 0.19141-0.033658 0.28181-0.11673 1.036-0.30469 2.7969-0.098879 0.92638-0.16589 1.8197-0.26758 2.6719-0.32587 2.731-0.81504 5.4728-1.2891 8.2461-0.80208 4.5311-1.8112 9.015-3.1484 13.389l-0.007812 0.021485-0.00586 0.021484c-0.41021 1.5039-1.0068 2.9707-1.6836 4.4609l-1.6328 3.5977 14.219-6.5605 0.20898-0.57422c0.5705-1.5594 1.0863-3.1792 1.4023-4.8926 0.34688-1.795 0.64255-3.5743 0.97461-5.3223 0.50355-2.6507 1.0907-5.3199 1.5762-8.043l0.003907-0.015625 0.001953-0.013672c0.2886-1.8386 0.58655-3.6819 0.87109-5.5332 0.52471-3.4138 0.96037-6.7886 1.7012-10.045l0.00586-0.021485 0.003906-0.021484c0.45769-2.34 0.86894-4.6701 1.3223-6.9727l0.57617-2.9316zm-4.0137 5.2832c-0.25295 1.3549-0.50737 2.7163-0.76953 4.0566l0.009766-0.042969c-0.78237 3.439-1.2228 6.8818-1.7402 10.248-0.28226 1.8365-0.58114 3.6762-0.87109 5.5234-0.4707 2.636-1.0522 5.2841-1.5645 7.9805-0.34148 1.7976-0.63653 3.578-0.97461 5.3262l-0.001953 0.00586v0.005859c-0.23824 1.2914-0.66099 2.5744-1.1152 3.8652l-6.2246 2.873c0.16988-0.49353 0.40663-0.93816 0.54687-1.4512 1.3769-4.5088 2.4084-9.1022 3.2246-13.715l0.001953-0.003906v-0.003906c0.47152-2.7586 0.97118-5.5485 1.3105-8.3926 0.11182-0.93716 0.1791-1.8415 0.27148-2.707 0.13882-1.3006 0.17791-1.6421 0.22266-2.043 1.69e-4 -1e-6 0.015624 0.001971 0.015626 0.001953 5.5e-5 -5.55e-4 -6.3e-5 -0.003286 0-0.003906 4.95e-4 -0.004997 0.001979-0.015874 0.003906-0.035157 3.49e-4 -0.003491 0.005462-0.048763 0.005859-0.052734 0.009193-0.092559 0.023395-0.23866 0.037109-0.38086 0.027175-0.27072 0.064359-0.64458 0.18555-1.8418l0.001953-0.011719c0.002971-0.029342 8.66e-4 -0.014883 0.003907-0.044922 0.26232-1.8601 0.5225-3.8063 0.66016-5.7891l6.7598-3.3672z" color="#000000" color-rendering="auto" dominant-baseline="auto" image-rendering="auto" solid-color="#000000" stop-color="#000000" style="font-feature-settings:normal;font-variant-alternates:normal;font-variant-caps:normal;font-variant-east-asian:normal;font-variant-ligatures:normal;font-variant-numeric:normal;font-variant-position:normal;font-variation-settings:normal;inline-size:0;isolation:auto;mix-blend-mode:normal;shape-margin:0;shape-padding:0;text-decoration-color:#000000;text-decoration-line:none;text-decoration-style:solid;text-indent:0;text-orientation:mixed;text-transform:none;white-space:normal"/>
   <path d="m28.256 49.932c-1.0229 3.7857-2.0686 7.5668-3.1591 11.335-0.89098 3.4917-1.7206 7.0459-1.9791 10.65 0.0251 0.27156-0.05409 0.5746 0.07529 0.81468 0.1841 0.34161 0.46053 0.67076 0.81287 0.83339 0.98843 0.45624 2.8169 0.35514 3.8042 0.3206 1.8454-0.06458 3.6873-0.20595 5.5313-0.30445 3.2827-0.21739 6.5802-0.11183 9.8627-0.32286 1.2862-0.08269 3.7884-0.35153 4.9925-0.47424 5.6596-0.60459 11.35-0.92058 16.99-1.6999 4.5425-0.8569 9.0928-1.6454 13.687-2.1635 2.0724-0.21876 4.1317-0.4873 6.2154-0.57087 0.73496-0.02143 1.4702-0.01498 2.2053-0.01045l8.9903-6.627c-0.7867 0.10994-1.5732 0.13999-2.3674 0.16621-1.4017 0.06234-2.8299 0.06213-4.2216 0.25505-0.34011 0.04714-0.67556 0.12339-1.0139 0.182-0.425 0.07363-0.85071 0.14316-1.2761 0.21473-4.678 0.82458-9.3524 1.6693-14.042 2.4274-5.6494 0.88746-11.336 1.6069-17.055 1.8328-0.85373 0.04843-1.7084 0.08316-2.5612 0.14528-3.8573 0.28096-0.59068 0.13683-4.4532 0.37326-2.6269 0.1608-5.2598 0.2343-7.8882 0.3646-2.3075 0.05449-4.6038 0.08014-6.9113 0.02687-0.36554-0.0084-0.73292 0.0098-1.0966-0.02838-0.13078-0.01373-0.29895-0.01802-0.3738-0.12613-0.11525-0.16649-0.08334-0.3963-0.12501-0.59445-0.17119-3.3928 0.57222-6.7556 1.3487-10.038 0.21926-0.81406 0.42128-1.633 0.65779-2.4422 0.94171-3.2221 2.1343-6.3571 3.5507-9.3996l-10.201 4.8599z" color="#000000" color-rendering="auto" dominant-baseline="auto" image-rendering="auto" solid-color="#000000" stop-color="#000000" style="font-feature-settings:normal;font-variant-alternates:normal;font-variant-caps:normal;font-variant-east-asian:normal;font-variant-ligatures:normal;font-variant-numeric:normal;font-variant-position:normal;font-variation-settings:normal;inline-size:0;isolation:auto;mix-blend-mode:normal;shape-margin:0;shape-padding:0;text-decoration-color:#000000;text-decoration-line:none;text-decoration-style:solid;text-indent:0;text-orientation:mixed;text-transform:none;white-space:normal"/>
   <path d="m41.514 41.988-14.5 6.9082-0.17578 0.65234c-1.0214 3.7801-2.0651 7.5519-3.1523 11.309l-0.007813 0.023437-0.005859 0.023438c-0.89601 3.5115-1.7499 7.1488-2.0195 10.908l-0.009766 0.11914 0.011719 0.12109c-0.010192-0.11027-0.24904 0.46181 0.24414 1.377 0.28853 0.5354 0.72041 1.1125 1.4922 1.4688 0.84476 0.38992 1.6717 0.44776 2.4609 0.47852 0.78924 0.030756 1.5345-0.006806 2.0098-0.023437 1.8862-0.066007 3.7374-0.2074 5.5586-0.30469h0.009766l0.007812-0.001953c3.1867-0.21103 6.4846-0.10518 9.8613-0.32227 1.368-0.087945 3.8538-0.35694 5.0469-0.47852h0.003906 0.001953c5.61-0.59928 11.316-0.91679 17.035-1.707l0.037109-0.003906 0.035156-0.007812c4.5249-0.85358 9.0348-1.633 13.568-2.1445l0.009765-0.001953c2.0926-0.22105 4.118-0.48256 6.1113-0.5625 0.69246-0.019757 1.4051-0.014274 2.1367-0.009765l0.48828 0.003906 9.3828-6.918-1.0762-2.6367c-0.69008 0.096441-1.4217 0.12629-2.2109 0.15234h-0.009766-0.007813c-1.3573 0.060365-2.8301 0.055864-4.3574 0.26758-0.42341 0.058685-0.77636 0.13954-1.0645 0.18945-0.41569 0.072015-0.83756 0.14248-1.2676 0.21484h-0.005859l-0.005859 0.001953c-4.6802 0.82496-9.346 1.6669-14.016 2.4219-5.6203 0.88289-11.251 1.5939-16.885 1.8164h-0.011719l-0.013672 0.001953c-0.83803 0.047539-1.6998 0.08208-2.584 0.14648-1.9405 0.14134-2.2837 0.20479-2.3965 0.22656-0.11274 0.021769-0.11482 0.026744-2.0391 0.14453-2.5944 0.15881-5.2215 0.23194-7.8711 0.36328-2.2827 0.053595-4.5429 0.079559-6.8047 0.027344-0.054059-0.001242-0.070413-0.001271-0.12109-0.001953-0.042428-2.9277 0.54758-5.9287 1.2676-8.9727 4.77e-4 -0.002017 0.001476-0.003842 0.001953-0.005859 0.21961-0.81772 0.41802-1.6122 0.63867-2.3672 0.92-3.1478 2.086-6.215 3.4727-9.1934l1.7246-3.7031zm-5.7168 5.9785c-0.80926 2.0147-1.6899 4.0017-2.3008 6.0918-0.24819 0.84917-0.45412 1.6787-0.66797 2.4727l-0.005859 0.021484-0.003907 0.023438c-0.77983 3.2966-1.5712 6.7938-1.3867 10.449l0.005859 0.11523 0.023438 0.11328c-0.036513-0.17361-0.19222 0.33772 0.35547 1.1289 0.32543 0.47004 0.7824 0.63199 1.0293 0.69141s0.38229 0.056898 0.39844 0.058593c0.51409 0.053977 0.9226 0.030349 1.2168 0.03711 2.3408 0.05404 4.6608 0.027432 6.9805-0.027344h0.017578l0.019532-0.001953c2.6072-0.12925 5.2468-0.20245 7.9062-0.36523 1.9383-0.11865 2.2321-0.15785 2.416-0.19336s0.1359-0.040069 2.0527-0.17969c0.81326-0.059237 1.6534-0.094039 2.5137-0.14258l0.02539-0.001954c5.7943-0.23036 11.529-0.95694 17.199-1.8477l0.001953-0.001953h0.003906c4.7035-0.76036 9.3808-1.6065 14.051-2.4297l0.011718-0.001954c0.41698-0.070131 0.84113-0.13833 1.2715-0.21289 0.38855-0.067317 0.70803-0.13823 0.96484-0.17383 0.45631-0.063255 0.99764-0.058467 1.4844-0.087891l-4.5723 3.3691c-0.57892-0.003164-1.1588-0.007816-1.7617 0.009765h-0.009766-0.007812c-2.171 0.087069-4.262 0.36187-6.3105 0.57812h-0.003906l-0.00586 0.001954c-4.6284 0.52186-9.1908 1.3134-13.725 2.168-5.5601 0.7683-11.234 1.0835-16.943 1.6934-1.2169 0.12403-3.7286 0.39141-4.9316 0.46875-3.1883 0.20497-6.4865 0.10047-9.8652 0.32422-1.8598 0.099646-3.6881 0.23785-5.4863 0.30078-0.51205 0.017917-1.174 0.049509-1.793 0.02539-0.61264-0.023874-1.1791-0.14228-1.3301-0.20898-0.004985-0.045291-0.020057-0.16656-0.03711-0.30664 0.25483-3.4121 1.042-6.8432 1.918-10.277 0.001493-0.005853 0.002413-0.011726 0.003906-0.017579 1.0259-3.546 2.0069-7.1031 2.9707-10.66l6.3066-3.0039z" color="#000000" color-rendering="auto" dominant-baseline="auto" image-rendering="auto" solid-color="#000000" stop-color="#000000" style="font-feature-settings:normal;font-variant-alternates:normal;font-variant-caps:normal;font-variant-east-asian:normal;font-variant-ligatures:normal;font-variant-numeric:normal;font-variant-position:normal;font-variation-settings:normal;inline-size:0;isolation:auto;mix-blend-mode:normal;shape-margin:0;shape-padding:0;text-decoration-color:#000000;text-decoration-line:none;text-decoration-style:solid;text-indent:0;text-orientation:mixed;text-transform:none;white-space:normal"/>
   <path d="m92.05 48.886c-0.0674 0.55566-0.19574 1.1016-0.27484 1.6553-0.08789 0.61523-0.14367 1.2348-0.2328 1.8499-0.37122 2.5615-0.82889 5.1135-1.2411 7.6687-0.58835 4.5019-1.3439 8.983-2.3336 13.414l9.3398-4.5591c0.53329-4.4414 1.175-8.8683 2.0123-13.264 0.45113-2.6148 0.44464-2.7912 1.0389-5.3791 0.42389-1.8459 0.88841-3.7411 1.6978-5.4666 0.10028-0.21378 0.24044-0.40647 0.36066-0.6097z" color="#000000" color-rendering="auto" dominant-baseline="auto" image-rendering="auto" solid-color="#000000" stop-color="#000000" style="font-feature-settings:normal;font-variant-alternates:normal;font-variant-caps:normal;font-variant-east-asian:normal;font-variant-ligatures:normal;font-variant-numeric:normal;font-variant-position:normal;font-variation-settings:normal;inline-size:0;isolation:auto;mix-blend-mode:normal;shape-margin:0;shape-padding:0;text-decoration-color:#000000;text-decoration-line:none;text-decoration-style:solid;text-indent:0;text-orientation:mixed;text-transform:none;white-space:normal"/>
   <path d="m106.05 40.938-15.359 6.9492-0.099609 0.82226c-0.054403 0.44851-0.18004 0.98486-0.27148 1.625-0.095112 0.66579-0.1509 1.2831-0.23242 1.8457-0.3665 2.529-0.82335 5.0743-1.2383 7.6465l-0.001953 0.021484-0.003906 0.021485c-0.58364 4.4659-1.3322 8.9025-2.3105 13.283l-0.66602 2.9805 12.805-6.248 0.09375-0.79492c0.53043-4.4176 1.1689-8.8111 1.998-13.164l0.00195-0.013672 0.00196-0.011718c0.45341-2.628 0.43294-2.7293 1.0234-5.3008 0.42058-1.8315 0.87022-3.6232 1.5957-5.1699 0.02088-0.044521 0.12711-0.20264 0.29492-0.48633l2.3691-4.0059zm-6.1953 6.0293c-0.29833 1.0024-0.70901 2.0156-0.92969 2.9766-0.59526 2.5922-0.60617 2.8641-1.0488 5.4316-0.79432 4.1702-1.3897 8.3616-1.9062 12.557l-6.0645 2.959c0.70863-3.5346 1.3856-7.0751 1.8516-10.641 0.40773-2.5243 0.86444-5.0688 1.2383-7.6484 0.096737-0.66756 0.15371-1.2888 0.23438-1.8535 0.033488-0.23443 0.087151-0.5643 0.13867-0.8457l6.4863-2.9355z" color="#000000" color-rendering="auto" dominant-baseline="auto" image-rendering="auto" solid-color="#000000" stop-color="#000000" style="font-feature-settings:normal;font-variant-alternates:normal;font-variant-caps:normal;font-variant-east-asian:normal;font-variant-ligatures:normal;font-variant-numeric:normal;font-variant-position:normal;font-variation-settings:normal;inline-size:0;isolation:auto;mix-blend-mode:normal;shape-margin:0;shape-padding:0;text-decoration-color:#000000;text-decoration-line:none;text-decoration-style:solid;text-indent:0;text-orientation:mixed;text-transform:none;white-space:normal"/>
  </g>
  <g stroke-width=".62931" style="font-variant-caps:normal;font-variant-east-asian:normal;font-variant-ligatures:normal;font-variant-numeric:normal" aria-label="KANA">
   <path d="m32.301 88.847-2.5197 2.0526v4.4985q0 0.38102 0.17208 0.58997 0.18437 0.19666 0.61456 0.30728v0.39332h-5.236v-0.39332q0.44248-0.12291 0.61456-0.31957 0.17208-0.19666 0.17208-0.57768v-14.209q0-0.36873-0.17208-0.56539-0.17208-0.19666-0.61456-0.31957v-0.39332h5.236v0.39332q-0.44248 0.11062-0.61456 0.31957-0.17208 0.19666-0.17208 0.56539v5.8752l6.9076-5.6416q0.47935-0.39332 0.47935-0.62685 0-0.35644-0.71288-0.49164v-0.39332h6.8584v0.39332q-0.43019 0.08604-0.61456 0.19666-0.18437 0.11062-1.0693 0.8358l-0.94642 0.78663-5.7031 4.5846 6.4651 7.7803q0.89725 1.0816 1.2906 1.4012 0.40561 0.30728 1.0079 0.40561v0.39332h-6.5512v-0.39332q0.65143-0.1352 0.65143-0.46706 0-0.17208-0.58997-0.90954z" style="font-variant-caps:normal;font-variant-east-asian:normal;font-variant-ligatures:normal;font-variant-numeric:normal"/>
   <path d="m57.805 92.412h-7.6205l-1.1308 2.3599q-0.23353 0.49164-0.23353 0.77434 0 0.54081 0.8235 0.74976v0.39332h-5.5556v-0.39332q0.49164-0.09833 0.74976-0.34415 0.25811-0.24582 0.58997-0.95871l6.1701-12.893q0.29499-0.61456 0.29499-0.98329 0-0.56539-0.71288-0.81121v-0.39332h5.9489v0.39332q-0.72518 0.20895-0.72518 0.72518 0 0.35644 0.23353 0.81121l6.3914 12.93q0.40561 0.8235 0.71288 1.1308 0.30728 0.29499 0.8235 0.39332v0.39332h-6.1701v-0.39332q0.81121-0.1352 0.81121-0.76205 0-0.25811-0.24582-0.76205zm-1.057-2.2984-2.7163-5.9735-2.7532 5.9735z" style="font-variant-caps:normal;font-variant-east-asian:normal;font-variant-ligatures:normal;font-variant-numeric:normal"/>
   <path d="m70.133 85.197v10.202q0 0.38102 0.17208 0.57768 0.17208 0.19666 0.61456 0.31957v0.39332h-4.9287v-0.39332q0.44248-0.12291 0.61456-0.31957 0.17208-0.19666 0.17208-0.57768v-14.209q0-0.36873-0.17208-0.56539-0.17208-0.19666-0.61456-0.31957v-0.39332h5.7031v0.39332q-0.52852 0.1352-0.52852 0.56539 0 0.29499 0.34415 0.65143l9.2552 9.6239v-9.9558q0-0.36873-0.17208-0.56539-0.17208-0.19666-0.61456-0.31957v-0.39332h4.9287v0.39332q-0.44248 0.12291-0.61456 0.31957-0.17208 0.19666-0.17208 0.56539v14.209q0 0.38102 0.17208 0.57768 0.17208 0.19666 0.61456 0.31957v0.39332h-5.2852v-0.39332q0.51623-0.11062 0.51623-0.52852 0-0.24582-0.60226-0.86038z" style="font-variant-caps:normal;font-variant-east-asian:normal;font-variant-ligatures:normal;font-variant-numeric:normal"/>
   <path d="m100.49 92.412h-7.6205l-1.1308 2.3599q-0.23353 0.49164-0.23353 0.77434 0 0.54081 0.8235 0.74976v0.39332h-5.5556v-0.39332q0.49164-0.09833 0.74976-0.34415 0.25811-0.24582 0.58997-0.95871l6.1701-12.893q0.29499-0.61456 0.29499-0.98329 0-0.56539-0.71288-0.81121v-0.39332h5.9489v0.39332q-0.72518 0.20895-0.72518 0.72518 0 0.35644 0.23353 0.81121l6.3914 12.93q0.4056 0.8235 0.71288 1.1308 0.30728 0.29499 0.82351 0.39332v0.39332h-6.1701v-0.39332q0.81121-0.1352 0.81121-0.76205 0-0.25811-0.24582-0.76205zm-1.057-2.2984-2.7163-5.9735-2.7532 5.9735z" style="font-variant-caps:normal;font-variant-east-asian:normal;font-variant-ligatures:normal;font-variant-numeric:normal"/>
  </g>
 </g>
</svg>
